<svg xmlns="http://www.w3.org/2000/svg" xmlns:xlink="http://www.w3.org/1999/xlink" width="48.147" height="48.147" viewBox="0 0 48.147 48.147"><defs><clipPath id="clip-path"><rect id="Rectangle_8" data-name="Rectangle 8" width="48.147" height="48.147" fill="#fcd0c3"></rect></clipPath></defs><g id="Group_4" data-name="Group 4" transform="translate(-851 -795)"><g id="Group_5" data-name="Group 5" transform="translate(851 795)"><g id="Group_4-2" data-name="Group 4" clip-path="url(#clip-path)"><path id="Path_7" data-name="Path 7" d="M21.873,32.51h0a1.794,1.794,0,0,0,1.651-1.092,6.738,6.738,0,0,1,.327-.682l4.084-7.073a8,8,0,0,1,6.91-3.989H35.9a.609.609,0,0,0,.528-.914L33.271,13.3a3.452,3.452,0,0,0-1.043-1.108,1.493,1.493,0,0,0-1.336-.158A24.139,24.139,0,0,0,16.776,25.3a1.541,1.541,0,0,0,.083,1.373L19.4,31.085a2.85,2.85,0,0,0,2.469,1.425" transform="translate(-14.854 -10.652)" fill="#fcd0c3"></path><path id="Path_8" data-name="Path 8" d="M132.408,147.044h.025a1.3,1.3,0,0,0,1.208-.818,8.38,8.38,0,0,1,.44-.956l4.084-7.073a8,8,0,0,1,6.91-3.989h1.57a.311.311,0,0,0,.269-.467l-3.412-5.91a3.379,3.379,0,0,0-2.926-1.69,1.287,1.287,0,0,0-1.2.8,7.738,7.738,0,0,1-.476.978l-4.083,7.072a8,8,0,0,1-6.91,3.989h-1.57a.311.311,0,0,0-.269.467l3.412,5.91a3.379,3.379,0,0,0,2.926,1.69" transform="translate(-112.418 -112.519)" fill="#fcd0c3"></path><path id="Path_9" data-name="Path 9" d="M247.793,249.981l3.442-5.961a.391.391,0,0,0-.339-.586h-1.53a3.389,3.389,0,0,0-2.926,1.69L243,251.084a.391.391,0,0,0,.339.587h1.53a3.388,3.388,0,0,0,2.926-1.689" transform="translate(-216.71 -217.145)" fill="#fcd0c3"></path><path id="Path_10" data-name="Path 10" d="M130.5,132.689l3.441-5.961a.391.391,0,0,0-.339-.586h-1.53a3.388,3.388,0,0,0-2.926,1.689l-3.442,5.961a.391.391,0,0,0,.339.587h1.53a3.389,3.389,0,0,0,2.926-1.69" transform="translate(-112.084 -112.519)" fill="#fcd0c3"></path><path id="Path_11" data-name="Path 11" d="M208.656,1.587l3.366,5.831a7.722,7.722,0,0,1,.439.889,1.175,1.175,0,0,0,1.088.715h.146a7.978,7.978,0,0,1,6.91,3.989l4.083,7.072a7.712,7.712,0,0,1,.439.889,1.176,1.176,0,0,0,1.088.715h.146a7.979,7.979,0,0,1,6.91,3.99l.048.083a.165.165,0,0,0,.308-.07c.037-.535.059-1.074.059-1.618A24.073,24.073,0,0,0,209.612,0c-.437,0-.87.015-1.3.041a.333.333,0,0,0-.266.5c.248.423.576.987.61,1.045" transform="translate(-185.539)" fill="#fcd0c3"></path><path id="Path_12" data-name="Path 12" d="M259.971,243.434h0a1.794,1.794,0,0,0-1.651,1.092,6.731,6.731,0,0,1-.327.682l-4.084,7.073a8,8,0,0,1-6.91,3.989h-1.053a.609.609,0,0,0-.528.914l3.154,5.463a3.452,3.452,0,0,0,1.043,1.108,1.493,1.493,0,0,0,1.336.158,24.139,24.139,0,0,0,14.117-13.272,1.541,1.541,0,0,0-.083-1.373l-2.545-4.409a2.85,2.85,0,0,0-2.469-1.425" transform="translate(-218.842 -217.146)" fill="#fcd0c3"></path><path id="Path_13" data-name="Path 13" d="M25.029,230.792l-3.366-5.831a7.72,7.72,0,0,1-.439-.889,1.175,1.175,0,0,0-1.088-.715H19.99a7.978,7.978,0,0,1-6.91-3.989L9,212.3a7.716,7.716,0,0,1-.439-.889,1.176,1.176,0,0,0-1.088-.715H7.324a7.979,7.979,0,0,1-6.91-3.99l-.048-.083a.165.165,0,0,0-.308.07c-.037.535-.059,1.074-.059,1.618a24.073,24.073,0,0,0,24.073,24.073c.437,0,.87-.015,1.3-.041a.333.333,0,0,0,.266-.5c-.248-.423-.576-.987-.61-1.045" transform="translate(0 -184.233)" fill="#fcd0c3"></path></g></g></g></svg>